# xmcd
#
# Track frame offsets:
# 150
# 12290
# 20735
# 31467
# 43357
# 55605
# 65400
# 79617
# 88860
# 99227
# 109795
# 120635
# 132385
# 145415
# 158580
# 169207
#
# Disc length: 2397 seconds
#
#
# Revision: 0
# Processed by: cddbd v1.5.1PL2 Copyright (c) Steve Scherf et al.
# Submitted via: FreeRIP 2.944 
#
DISCID=d5095b10
DTITLE=Dale Evans - Greatest Hits (Queen of the West)
DYEAR=2000
DGENRE=Country
TTITLE0=Don't Ever Fall In Love With A Cowboy
TTITLE1=It's Saturday Night
TTITLE2=(I Wear A) Saddle On My Heart
TTITLE3=Nothin' In My Letter Box
TTITLE4=Hazy Mountains w/Roy Rogers
TTITLE5=The Bible Tells Me So
TTITLE6=San Angelo
TTITLE7=Smiles Are Made Out Of The Sunshine w/Roy Rogers
TTITLE8=A Two-Seated Saddle And A One-Gaited Horse
TTITLE9=Cowgirl Polka
TTITLE10=You've Got A Rope Around My Heart w/Roy Rogers
TTITLE11=Yellow Bonnets And Polka Dot Shoes w/Roy Rogers
TTITLE12=Easter Parade w/Roy Rogers
TTITLE13=Texas For Me
TTITLE14=Love At The County Fair w/Sons of the Pioneers
TTITLE15=May The Good Lord Take A Likin' To You w/Roy Rogers
EXTD=
EXTT0=
EXTT1=
EXTT2=
EXTT3=
EXTT4=
EXTT5=
EXTT6=
EXTT7=
EXTT8=
EXTT9=
EXTT10=
EXTT11=
EXTT12=
EXTT13=
EXTT14=
EXTT15=
PLAYORDER=
